<?xml version="1.0" encoding="UTF-8"?>
<svg version="1.1" xmlns="http://www.w3.org/2000/svg" width="600" height="600">
<path d="M0 0 C198 0 396 0 600 0 C600 198 600 396 600 600 C402 600 204 600 0 600 C0 402 0 204 0 0 Z " fill="#121212" transform="translate(0,0)"/>
<path d="M0 0 C198 0 396 0 600 0 C600 198 600 396 600 600 C402 600 204 600 0 600 C0 402 0 204 0 0 Z M262 29 C260.84612793 29.13680176 260.84612793 29.13680176 259.66894531 29.27636719 C238.97530039 31.79567039 218.39027897 37.39012123 199 45 C198.30793457 45.26780273 197.61586914 45.53560547 196.90283203 45.81152344 C171.96679955 55.52303438 149.19604044 68.64876881 128 85 C127.14535156 85.65871094 126.29070312 86.31742188 125.41015625 86.99609375 C119.77883563 91.41752558 114.48811278 96.12256552 109.25 100.99609375 C107 103 107 103 105 104 C105 104.66 105 105.32 105 106 C104.10474609 106.39058594 104.10474609 106.39058594 103.19140625 106.7890625 C100.83893217 108.08900361 99.63949215 109.3117154 97.9375 111.375 C95.04837723 114.8088938 92.03460721 118.065092 88.9375 121.3125 C43.81461412 169.73474471 19.88950486 238.97318004 20.5 304.4375 C20.50487427 305.58889465 20.50974854 306.74028931 20.51477051 307.92657471 C20.59893739 324.90444747 21.1774912 341.39324826 25 358 C25.16016602 358.71929687 25.32033203 359.43859375 25.48535156 360.1796875 C26.47792549 364.51245181 27.71954025 368.74527934 29 373 C29.42768837 374.59645451 29.85051946 376.19421503 30.26953125 377.79296875 C37.41327544 404.64768744 49.03731603 431.18807929 65 454 C65.58297852 454.84449707 65.58297852 454.84449707 66.17773438 455.70605469 C76.39057234 470.48260044 87.51263179 484.08644175 100 497 C100.79954102 497.83241211 100.79954102 497.83241211 101.61523438 498.68164062 C108.33737711 505.65681257 115.35542529 512.03298474 123 518 C123.94875 518.76570313 124.8975 519.53140625 125.875 520.3203125 C163.68473927 550.31732504 208.76432672 568.60271197 256 577 C257.37140137 577.25209229 257.37140137 577.25209229 258.77050781 577.50927734 C312.4067868 587.06949331 368.19299993 575.64464696 417 553 C418.10480713 552.49001465 418.10480713 552.49001465 419.23193359 551.96972656 C437.06817359 543.64530278 453.58664121 533.20960732 469 521 C469.9590625 520.25363281 470.918125 519.50726562 471.90625 518.73828125 C480.01734202 512.28519186 487.51647322 505.16017756 495 498 C495.94488281 497.09765625 496.88976562 496.1953125 497.86328125 495.265625 C502.88274343 490.36325758 507.43500391 485.23484265 511.8046875 479.74609375 C513.19631067 478.00532668 514.61540953 476.28589272 516.0703125 474.59765625 C534.06814854 453.57804331 548.23769848 428.15370599 557.796875 402.22265625 C558.47258973 400.41270607 559.16341178 398.60767086 559.90625 396.82421875 C562.61909697 390.29251798 564.67204444 383.70420054 566.5 376.875 C566.95173584 375.18842285 566.95173584 375.18842285 567.41259766 373.46777344 C569.41142881 365.77996131 571.06287089 358.08381296 572.375 350.25 C572.53033203 349.32429199 572.68566406 348.39858398 572.84570312 347.44482422 C577.64857118 316.65931724 578.09387476 281.37301325 571 251 C570.55839692 248.92479757 570.1183502 246.84926347 569.6796875 244.7734375 C560.02195198 200.65024762 539.16638411 157.76764237 509 124 C508.32324219 123.21367188 507.64648438 122.42734375 506.94921875 121.6171875 C496.08069942 109.16587409 484.27470267 96.88579048 471 87 C470.02643555 86.26837646 470.02643555 86.26837646 469.03320312 85.52197266 C459.03578571 78.0373832 448.8522231 71.1743955 438 65 C437.33726074 64.61859863 436.67452148 64.23719727 435.99169922 63.84423828 C422.39932983 56.02419183 408.81998808 49.19753136 394 44 C393.26410645 43.74186523 392.52821289 43.48373047 391.77001953 43.21777344 C381.62770377 39.69058153 371.44499694 36.52156997 361 34 C360.31454102 33.83258301 359.62908203 33.66516602 358.92285156 33.49267578 C327.22344762 25.87881354 294.2855584 24.90416798 262 29 Z " fill="#121212" transform="translate(0,0)"/>
<path d="M0 0 C1.02351563 0.17128418 2.04703125 0.34256836 3.1015625 0.51904297 C28.27203393 4.93320415 53.82302846 13.67459461 76.3125 25.75 C77.11099365 26.17627686 77.9094873 26.60255371 78.73217773 27.04174805 C81.16175968 28.34883961 83.58280982 29.67014619 86 31 C86.73154297 31.40234863 87.46308594 31.80469727 88.21679688 32.21923828 C99.77297797 38.64255772 110.42358072 46.08363477 121 54 C121.88300781 54.64710937 122.76601563 55.29421875 123.67578125 55.9609375 C140.37163886 68.47520006 156.41149596 84.3981313 169 101 C169.74378906 101.96164063 170.48757813 102.92328125 171.25390625 103.9140625 C196.84226786 137.4257239 214.66171364 176.0403542 223.41650391 217.27636719 C223.79566821 219.04622366 224.19034389 220.81285316 224.60302734 222.57519531 C228.20223476 238.20418608 228.37185101 253.72721491 228.375 269.6875 C228.37690338 270.72314087 228.37880676 271.75878174 228.38076782 272.82580566 C228.37691542 291.37236416 227.81637915 310.09804743 223.6875 328.25 C223.4702124 329.24322266 223.2529248 330.23644531 223.02905273 331.25976562 C212.82667592 376.995826 191.43237065 420.8575589 159 455 C157.88911215 456.28589073 156.7845434 457.57727793 155.6875 458.875 C148.16933281 467.5155476 139.84642317 475.72729287 131 483 C130.48775879 483.42603516 129.97551758 483.85207031 129.44775391 484.29101562 C114.01377458 497.08844701 97.5628918 507.35892987 80 517 C79.32420898 517.37366699 78.64841797 517.74733398 77.95214844 518.13232422 C68.88648817 523.08736459 59.41450037 526.95817658 49.8125 530.75 C48.648396 531.21027588 47.48429199 531.67055176 46.28491211 532.14477539 C36.13584299 536.08226689 25.91523454 539.66159985 15.1875 541.625 C11.54898577 542.29953372 7.98413657 543.00420726 4.40625 543.953125 C-25.85984284 551.62397025 -60.43581082 551.57442952 -91 546 C-91.99322266 545.82839355 -92.98644531 545.65678711 -94.00976562 545.47998047 C-122.6165419 540.4876251 -150.50018489 531.61635944 -176.18652344 517.953125 C-177.9558288 517.02321545 -179.74735003 516.1359682 -181.5390625 515.25 C-204.28899307 503.87970744 -224.72090593 487.56320266 -243 470 C-243.53753906 469.484375 -244.07507813 468.96875 -244.62890625 468.4375 C-251.96658582 461.35519211 -258.74791659 454.07517857 -265 446 C-265.48968262 445.37609375 -265.97936523 444.7521875 -266.48388672 444.109375 C-270.39420873 439.12546807 -274.22933911 434.0903922 -278 429 C-278.43957031 428.40799805 -278.87914062 427.81599609 -279.33203125 427.20605469 C-299.7182016 399.32877571 -313.78114884 364.71954026 -320.58691406 330.97363281 C-321.19072208 328.08877227 -321.91518389 325.23534809 -322.625 322.375 C-326.22272786 306.48972838 -326.44191502 290.65601408 -326.4375 274.4375 C-326.43823517 273.26358704 -326.43897034 272.08967407 -326.43972778 270.88018799 C-326.4088099 252.062569 -325.31958694 234.35890337 -321 216 C-320.72172363 214.79762695 -320.44344727 213.59525391 -320.15673828 212.35644531 C-312.55123183 180.13636698 -300.67407875 149.51605078 -282 122 C-281.52030762 121.29262695 -281.04061523 120.58525391 -280.54638672 119.85644531 C-272.0276835 107.38644388 -262.80601954 95.80707139 -252.5234375 84.75 C-250.42491326 82.46306336 -248.41422392 80.14135382 -246.4375 77.75 C-245.633125 76.8425 -244.82875 75.935 -244 75 C-243.34 75 -242.68 75 -242 75 C-242 74.34 -242 73.68 -242 73 C-240.40665761 71.56450274 -238.74748918 70.20172673 -237.0625 68.875 C-233.57637755 66.09492767 -230.19176265 63.29681961 -226.9375 60.25 C-215.1591531 49.69155331 -201.53525343 41.10690442 -188 33 C-186.8759375 32.31421875 -185.751875 31.6284375 -184.59375 30.921875 C-129.85214212 -1.56496706 -62.10517045 -10.4349915 0 0 Z M-92 31 C-93.75129715 31.30471587 -95.50259929 31.60940301 -97.25390625 31.9140625 C-135.43928348 38.82049844 -173.0636024 56.30937431 -203 81 C-203.51933105 81.41926758 -204.03866211 81.83853516 -204.57373047 82.27050781 C-229.49605831 102.39281194 -249.11593494 127.29176297 -265 155 C-265.35481445 155.61633301 -265.70962891 156.23266602 -266.07519531 156.86767578 C-271.06806252 165.62478683 -274.90349266 174.44698864 -278.24804688 183.95532227 C-279.1036002 186.2817051 -280.04205013 188.5668166 -280.984375 190.859375 C-282.97739015 195.80756678 -284.5585478 200.80438031 -286 205.9375 C-286.25418701 206.83484863 -286.50837402 207.73219727 -286.77026367 208.65673828 C-290.60483414 222.47573061 -293.74902531 236.53122152 -294.54296875 250.87890625 C-294.58439499 251.61524796 -294.62582123 252.35158966 -294.66850281 253.11024475 C-296.75061605 292.29547545 -292.38961397 329.53245906 -277 366 C-276.37239634 367.68653339 -275.74697415 369.3738824 -275.125 371.0625 C-267.43779015 390.0372585 -255.93067109 408.20033626 -243 424 C-242.195625 425.00804687 -241.39125 426.01609375 -240.5625 427.0546875 C-229.54927148 440.64008453 -216.95451195 453.44192698 -203 464 C-201.8028477 464.93681326 -200.60627509 465.87436758 -199.41015625 466.8125 C-156.00377632 500.50841412 -104.21256552 517.25372825 -49.5 517.1875 C-48.65717468 517.18722809 -47.81434937 517.18695618 -46.94598389 517.18667603 C-34.53694368 517.16825362 -22.28484025 516.91544189 -10 515 C-9.32001953 514.89816406 -8.64003906 514.79632812 -7.93945312 514.69140625 C10.71292842 511.81086687 28.4549632 505.80710925 46 499 C47.08643799 498.57895996 47.08643799 498.57895996 48.19482422 498.14941406 C65.70259271 491.23433219 82.08028451 481.42869709 97 470 C97.85207031 469.34773438 98.70414062 468.69546875 99.58203125 468.0234375 C102.08975673 466.05452864 104.55065726 464.04111895 107 462 C107.53625 461.55398438 108.0725 461.10796875 108.625 460.6484375 C118.43440203 452.45933849 127.82373145 443.97021369 136.1171875 434.2109375 C137.51459872 432.56999404 138.94123294 430.95384273 140.3828125 429.3515625 C161.91259662 405.13656703 177.9243044 375.03096483 187 344 C187.37850098 342.73978027 187.37850098 342.73978027 187.76464844 341.45410156 C198.29133322 305.94443189 201.06365465 266.51732669 194 230 C193.79914795 228.92709717 193.79914795 228.92709717 193.59423828 227.83251953 C192.62312029 222.82155069 191.37951841 217.91300452 190 213 C189.72526855 212.0212793 189.45053711 211.04255859 189.16748047 210.03417969 C185.33429281 196.59872492 181.09503413 183.5898449 174.97802734 171.01318359 C174.02217491 169.04564511 173.09731075 167.06583113 172.17578125 165.08203125 C164.16919659 148.15637017 154.05193274 132.31538593 142 118 C141.52208008 117.4220166 141.04416016 116.8440332 140.55175781 116.24853516 C101.6314077 69.18236357 47.95252381 40.10565119 -12 30 C-13.11487793 29.81091064 -14.22975586 29.62182129 -15.37841797 29.42700195 C-26.09514308 27.79632228 -36.67946227 27.64447023 -47.5 27.6875 C-48.42653381 27.68899048 -49.35306763 27.69048096 -50.30767822 27.6920166 C-64.41278517 27.7327872 -78.10963423 28.38917425 -92 31 Z " fill="#FBFBFB" transform="translate(347,31)"/>
<path d="M0 0 C10.23 0 20.46 0 31 0 C31 25.74 31 51.48 31 78 C33.31 78.33 35.62 78.66 38 79 C40.41945593 79.7847618 42.81517315 80.64506696 45.1875 81.5625 C45.86820557 81.82426025 46.54891113 82.08602051 47.25024414 82.35571289 C49.50420924 83.2271447 51.75260102 84.11177819 54 85 C55.19592773 85.47131348 55.19592773 85.47131348 56.41601562 85.95214844 C62.28922713 88.27222923 68.14699735 90.62947042 74 93 C74.79744629 93.32178223 75.59489258 93.64356445 76.41650391 93.97509766 C78.69598437 94.89606642 80.97336214 95.82202951 83.25 96.75 C84.24954712 97.15400024 84.24954712 97.15400024 85.26928711 97.56616211 C89.23034217 99.19088978 93.05477521 100.99208035 96.87011719 102.93310547 C99.16656238 104.08343393 101.48446138 105.17680308 103.8125 106.26171875 C114.82892284 111.40546279 125.48506136 116.90229586 136 123 C137.83068845 124.02556892 139.66353501 125.04731128 141.5 126.0625 C142.53640625 126.63677734 142.53640625 126.63677734 143.59375 127.22265625 C144.0578125 127.47917969 144.521875 127.73570312 145 128 C144.32528819 132.28401355 142.851068 136.08580468 141.1875 140.0625 C138.49819353 146.62022046 136.13992065 153.2403683 134 160 C129.78603193 158.48202276 126.10410065 156.34521073 122.3125 154 C94.9304179 137.39394092 65.99478432 122.95852084 36.28515625 111.0078125 C34 110 34 110 31 108 C31 149.25 31 190.5 31 233 C20.77 233 10.54 233 0 233 C0 156.11 0 79.22 0 0 Z " fill="#FBFBFB" transform="translate(350,193)"/>
<path d="M0 0 C7.84276727 -0.19041789 15.51416725 0.38526042 23.3125 1.1875 C24.59342529 1.31769531 25.87435059 1.44789063 27.1940918 1.58203125 C37.92472682 2.6981593 48.62075827 4.06202689 59.3125 5.5 C60.07261383 5.60146332 60.83272766 5.70292664 61.61587524 5.8074646 C77.25879681 7.90737463 92.73829782 10.6412958 108.1875 13.875 C110.06538208 14.26788208 110.06538208 14.26788208 111.98120117 14.66870117 C115.65512264 15.44120761 119.32766282 16.2200026 123 17 C123.97098633 17.20351074 124.94197266 17.40702148 125.94238281 17.61669922 C144.10812367 21.44436258 162.37751173 26.12583724 180 32 C179.34664916 38.88085948 177.73500725 45.33546035 175.9375 52 C175.65583984 53.06089844 175.37417969 54.12179687 175.08398438 55.21484375 C174.39396867 57.81117401 173.69920797 60.40613311 173 63 C168.03267603 61.53533547 163.07872428 60.04362417 158.16015625 58.421875 C134.65010887 50.68062106 110.83796776 45.10040298 86.51757812 40.64794922 C83.40911124 40.07535961 80.30560893 39.48289581 77.203125 38.87890625 C54.60688404 34.53132744 31.72861875 31.96632073 8.8515625 29.61328125 C4.22495047 29.13699058 -0.38791574 28.60035647 -5 28 C-4.22579814 18.42434536 -2.40802778 9.28810717 0 0 Z " fill="#FBFAFB" transform="translate(122,363)"/>
<path d="M0 0 C38.30912872 -1.67641244 79.20113839 6.36566531 116.1875 15.6875 C116.90473236 15.86750549 117.62196472 16.04751099 118.3609314 16.23297119 C127.78266399 18.62631841 136.90567594 21.58176716 146 25 C144.09446218 34.68648391 142.04271461 44.34172799 140 54 C131.64473537 51.9757864 123.34629246 49.85105467 115.2175293 47.03662109 C112.20834971 46.06712595 109.25837269 45.32558238 106.16796875 44.66796875 C105.05333252 44.42933105 103.93869629 44.19069336 102.7902832 43.94482422 C101.00690552 43.56994873 101.00690552 43.56994873 99.1875 43.1875 C97.9399292 42.92469238 96.6923584 42.66188477 95.40698242 42.39111328 C92.8351625 41.85096427 90.26297606 41.31255746 87.69042969 40.77587891 C84.37576115 40.07900033 81.06647307 39.36145769 77.7578125 38.63671875 C50.53780251 32.78744055 22.68789571 30.52687346 -5 28 C-3.99729739 20.65671579 -2.9989279 13.35886063 -1.375 6.125 C-1.11460937 4.95195312 -0.85421875 3.77890625 -0.5859375 2.5703125 C-0.39257812 1.72210938 -0.19921875 0.87390625 0 0 Z " fill="#FBFAFB" transform="translate(144,200)"/>
<path d="M0 0 C29.0674869 0.07124384 58.64519777 5.98808089 87 12 C87.77134277 12.16177734 88.54268555 12.32355469 89.33740234 12.49023438 C100.47646807 14.86163215 111.36284416 18.06796259 122.2734375 21.31640625 C127.82572548 22.96530799 133.40569247 24.50057243 139 26 C138.3850185 32.60132039 136.82360905 38.65462154 134.9375 45 C134.65583984 45.96550781 134.37417969 46.93101562 134.08398438 47.92578125 C133.39475721 50.28550816 132.69999989 52.64345085 132 55 C128.71128711 54.38842498 125.57607702 53.61177485 122.39453125 52.58203125 C81.47405799 39.58468126 37.87573551 31.66142449 -5 29 C-5.36128656 22.560067 -4.00226992 16.80301045 -2.5 10.5625 C-2.26152344 9.54478516 -2.02304688 8.52707031 -1.77734375 7.47851562 C-1.19176879 4.98396632 -0.59916458 2.49131359 0 0 Z " fill="#FBFAFA" transform="translate(145,281)"/>
<path d="M0 0 C0 3.32058331 -0.43061972 5.08543662 -2 8 C-4.5 9.25 -4.5 9.25 -7 10 C-7.99 10.495 -7.99 10.495 -9 11 C-9.99 10.67 -10.98 10.34 -12 10 C-12 9.01 -12 8.02 -12 7 C-9.375 5.17578125 -9.375 5.17578125 -6 3.3125 C-4.88625 2.68988281 -3.7725 2.06726563 -2.625 1.42578125 C-1.75875 0.95527344 -0.8925 0.48476563 0 0 Z " fill="#181919" transform="translate(441,539)"/>
<path d="M0 0 C2.64521932 2.64521932 3.44542519 5.66171349 4.625 9.125 C4.85445312 9.78371094 5.08390625 10.44242188 5.3203125 11.12109375 C5.88536242 12.74561226 6.44336277 14.37257971 7 16 C6.01 16 5.02 16 4 16 C3.34 12.7 2.68 9.4 2 6 C1.34 6 0.68 6 0 6 C-0.38218767 4.34385343 -0.71395102 2.67542976 -1 1 C-0.67 0.67 -0.34 0.34 0 0 Z " fill="#222222" transform="translate(523,206)"/>
<path d="M0 0 C0 2.33333333 0 4.66666667 0 7 C-0.61875 7.12375 -1.2375 7.2475 -1.875 7.375 C-4.19120832 7.87197356 -4.19120832 7.87197356 -6 10 C-6.99 9.67 -7.98 9.34 -9 9 C-6.03 6.03 -3.06 3.06 0 0 Z " fill="#1A1A1A" transform="translate(133,121)"/>
<path d="M0 0 C3.465 1.485 3.465 1.485 7 3 C6.67 3.66 6.34 4.32 6 5 C4.02 5 2.04 5 0 5 C-0.33 4.01 -0.66 3.02 -1 2 C-0.67 1.34 -0.34 0.68 0 0 Z M-2 5 C0 6 0 6 0 6 Z " fill="#191919" transform="translate(419,318)"/>
<path d="M0 0 C2.64 0 5.28 0 8 0 C8.33 0.99 8.66 1.98 9 3 C5.7 2.67 2.4 2.34 -1 2 C-0.67 1.34 -0.34 0.68 0 0 Z " fill="#1E1E1E" transform="translate(323,578)"/>
<path d="M0 0 C0 3.20395416 -0.74335022 5.09399739 -2 8 C-2.99 7.67 -3.98 7.34 -5 7 C-5 6.34 -5 5.68 -5 5 C-5.66 4.67 -6.32 4.34 -7 4 C-4.69 2.68 -2.38 1.36 0 0 Z " fill="#202020" transform="translate(441,539)"/>
<path d="M0 0 C3.3 0 6.6 0 10 0 C10 0.66 10 1.32 10 2 C6.6875 2.6875 6.6875 2.6875 3 3 C2.01 2.01 1.02 1.02 0 0 Z " fill="#191817" transform="translate(163,280)"/>
<path d="M0 0 C0.66 0.33 1.32 0.66 2 1 C-0.41556126 4.19199167 -2.68003538 6.74716687 -6 9 C-6.66 8.67 -7.32 8.34 -8 8 C-5.36 5.36 -2.72 2.72 0 0 Z " fill="#EFEFEF" transform="translate(97,113)"/>
<path d="M0 0 C2.64 1.65 5.28 3.3 8 5 C7.67 5.66 7.34 6.32 7 7 C4.13302508 5.71480435 2.02392288 4.42870746 0 2 C0 1.34 0 0.68 0 0 Z " fill="#1C1C1C" transform="translate(443,106)"/>
<path d="M0 0 C3 3.75 3 3.75 3 6 C2.38125 5.649375 1.7625 5.29875 1.125 4.9375 C0.073125 4.4734375 0.073125 4.4734375 -1 4 C-1.99 4.495 -1.99 4.495 -3 5 C-1.125 1.125 -1.125 1.125 0 0 Z " fill="#1A1A1A" transform="translate(47,422)"/>
<path d="M0 0 C1.32 0.66 2.64 1.32 4 2 C3.34 3.32 2.68 4.64 2 6 C1.01 6 0.02 6 -1 6 C-0.67 4.02 -0.34 2.04 0 0 Z " fill="#E7E5E6" transform="translate(530,384)"/>
<path d="M0 0 C2.475 0.495 2.475 0.495 5 1 C4.67 2.32 4.34 3.64 4 5 C3.01 5 2.02 5 1 5 C0.67 3.35 0.34 1.7 0 0 Z " fill="#1B1B1B" transform="translate(536,160)"/>
<path d="M0 0 C0.66 0 1.32 0 2 0 C1.67 1.65 1.34 3.3 1 5 C0.01 5 -0.98 5 -2 5 C-1.125 1.125 -1.125 1.125 0 0 Z " fill="#222021" transform="translate(87,119)"/>
<path d="M0 0 C0.33 0.66 0.66 1.32 1 2 C0.67 2.99 0.34 3.98 0 5 C-1.98 4.34 -3.96 3.68 -6 3 C-3 1 -3 1 0 0 Z " fill="#1D1D1D" transform="translate(219,71)"/>
</svg>
